<?xml version="1.0" encoding="utf-8"?>
<!-- Generator: Adobe Illustrator 16.0.0, SVG Export Plug-In . SVG Version: 6.00 Build 0)  -->
<!DOCTYPE svg PUBLIC "-//W3C//DTD SVG 1.1//EN" "http://www.w3.org/Graphics/SVG/1.1/DTD/svg11.dtd">
<svg version="1.1" id="Layer_1" xmlns="http://www.w3.org/2000/svg" xmlns:xlink="http://www.w3.org/1999/xlink" x="0px" y="0px"
	 width="7.072px" height="5.189px" viewBox="0 0 7.072 5.189" enable-background="new 0 0 7.072 5.189" xml:space="preserve">
<g>
	<path d="M6.916,2.161L4.169,4.907c-0.101,0.101-0.24,0.16-0.383,0.16c-0.144,0-0.282-0.06-0.38-0.16L0.662,2.161
		C0.559,2.063,0.5,1.924,0.5,1.781c0-0.143,0.059-0.282,0.161-0.384l0.312-0.316c0.101-0.097,0.24-0.155,0.383-0.155
		c0.144,0,0.282,0.059,0.38,0.155l2.05,2.05l2.05-2.05c0.097-0.097,0.236-0.155,0.379-0.155c0.144,0,0.282,0.059,0.385,0.155
		l0.315,0.316c0.098,0.102,0.156,0.241,0.156,0.384C7.072,1.924,7.013,2.063,6.916,2.161z"/>
</g>
</svg>
