<?xml version="1.0" encoding="utf-8"?>
<!-- Generator: Adobe Illustrator 16.0.0, SVG Export Plug-In . SVG Version: 6.00 Build 0)  -->
<!DOCTYPE svg PUBLIC "-//W3C//DTD SVG 1.1//EN" "http://www.w3.org/Graphics/SVG/1.1/DTD/svg11.dtd">
<svg version="1.1" id="Layer_1" xmlns="http://www.w3.org/2000/svg" xmlns:xlink="http://www.w3.org/1999/xlink" x="0px" y="0px"
	 width="100px" height="27px" viewBox="0 0 100 27" enable-background="new 0 0 100 27" xml:space="preserve">
<g>
	<path d="M5.351,18.113c-0.079,0.582-0.529,0.873-0.979,0.873c-0.502,0-1.005-0.37-1.005-1.163c0-1.851,0.899-7.061,2.089-11.133
		c0.132-0.45,0.555-0.661,1.005-0.661c0.608,0,1.295,0.423,1.295,1.164c0,0.449-0.317,1.11-0.449,1.586
		c0.952-2.036,2.115-3.517,3.411-3.517c0.979,0,1.349,0.582,1.349,1.719c0,1.481-1.27,3.94-1.27,4.866
		c0,0.37,0.212,0.582,0.608,0.582c0.873,0,1.957-1.931,2.406-2.962c0.159-0.396,0.344-0.635,0.502-0.635
		c0.291,0,0.185,0.556,0.132,0.741c-0.396,1.507-1.931,3.887-3.755,3.887c-1.058,0-2.063-0.45-2.063-2.036
		c0-1.455,1.164-3.226,1.164-4.046c0-0.185-0.079-0.317-0.264-0.317c-0.899,0-3.067,3.781-3.755,8.25L5.351,18.113z"/>
	<path d="M20.845,8.197c0,2.539-1.904,6.108-4.707,6.108c-0.317,0-0.661-0.053-1.005-0.159c0,1.164,0.106,3.173,1.746,3.173
		c2.512,0,3.86-2.856,4.548-3.94c0.159-0.264,0.291-0.37,0.423-0.37c0.106,0,0.185,0.106,0.185,0.265
		c0,0.105-0.026,0.238-0.079,0.37c-1.19,2.961-3.041,5.289-6.082,5.289c-2.274,0-3.2-2.062-3.2-4.575
		c0-3.94,2.274-9.043,5.051-9.043c0.582,0,1.19,0.185,1.507,0.449C20.342,5.896,20.845,6.901,20.845,8.197z M15.397,13.459
		c1.56,0,3.808-4.178,3.808-6.241c0-0.423-0.053-0.873-0.449-0.873c-1.507,0-3.253,3.914-3.57,7.087
		C15.265,13.459,15.318,13.459,15.397,13.459z"/>
	<path d="M22.614,18.431c-0.688,3.147-1.243,5.923-1.322,6.875c-0.053,0.634-0.502,0.793-0.979,0.793
		c-0.555,0-1.137-0.291-1.137-1.137c0-0.873,2.67-14.227,3.702-17.955c0.185-0.661,0.714-0.952,1.216-0.952
		c0.582,0,1.137,0.37,1.137,1.005c0,0.106,0,0.185-0.211,1.058c0.767-1.666,1.719-2.83,2.856-2.83c1.613,0,2.274,1.561,2.274,3.464
		c0,3.12-1.666,7.457-3.861,9.282c2.406-0.529,3.834-2.036,5.104-4.654c0.132-0.291,0.291-0.423,0.423-0.423
		c0.106,0,0.185,0.105,0.185,0.291c0,0.132-0.026,0.238-0.079,0.396c-1.349,3.332-3.12,5.368-6.981,5.368
		C23.725,19.013,23.01,18.748,22.614,18.431z M22.958,17.003c0.291,0,0.635,0.159,1.005,0.608c1.798-0.317,3.623-6.082,3.623-8.911
		c0-0.952-0.211-1.507-0.688-1.507c-1.031,0-2.195,2.591-3.067,5.976L22.958,17.003z"/>
	<path d="M39.508,8.197c0,2.539-1.904,6.108-4.707,6.108c-0.317,0-0.661-0.053-1.005-0.159c0,1.164,0.106,3.173,1.746,3.173
		c2.512,0,3.86-2.856,4.548-3.94c0.159-0.264,0.291-0.37,0.423-0.37c0.106,0,0.185,0.106,0.185,0.265
		c0,0.105-0.026,0.238-0.079,0.37c-1.19,2.961-3.041,5.289-6.082,5.289c-2.274,0-3.2-2.062-3.2-4.575
		c0-3.94,2.274-9.043,5.051-9.043c0.582,0,1.19,0.185,1.507,0.449C39.006,5.896,39.508,6.901,39.508,8.197z M34.061,13.459
		c1.56,0,3.808-4.178,3.808-6.241c0-0.423-0.053-0.873-0.449-0.873c-1.507,0-3.253,3.914-3.57,7.087
		C33.929,13.459,33.981,13.459,34.061,13.459z"/>
	<path d="M47.016,16.686c0,0.396,0.132,0.661,0.37,0.661c0.555,0,1.375-1.402,2.618-3.967c0.132-0.291,0.344-0.449,0.476-0.449
		c0.08,0,0.159,0.079,0.159,0.264c0,0.106-0.026,0.265-0.105,0.45c-0.37,0.925-2.036,5.262-4.072,5.262
		c-0.82,0-1.798-0.45-1.798-2.433c0-0.132,0-0.317,0.026-0.502c-0.873,1.798-1.877,2.935-2.724,2.935
		c-1.428,0-2.036-1.534-2.036-3.596c0-4.02,2.327-9.996,5.368-9.996c1.058,0,1.719,1.137,1.771,1.957h0.159
		c0.661,0,1.455,0.555,1.455,1.534c0,0.132,0,0.265-0.026,0.397C47.941,12.56,47.016,15.416,47.016,16.686z M45.561,11.661
		l0.846-3.808c0-0.45-0.079-1.005-0.714-1.005c-1.771,0-3.385,6.188-3.385,8.964c0,0.793,0.132,1.295,0.45,1.295
		C43.737,17.108,44.9,14.596,45.561,11.661z"/>
	<path d="M51.72,5.341c0.317-1.19,0.635-2.327,0.979-3.411c0.132-0.45,0.582-0.661,1.084-0.661c0.661,0,1.375,0.423,1.375,1.322
		c0,0.661-0.396,1.824-0.688,2.882c1.296,0.105,2.512,0.185,2.512,0.555s-0.979,0.635-2.909,0.846
		c-1.005,3.49-2.248,7.589-2.248,9.493c0,0.688,0.159,1.11,0.555,1.11c1.031,0,2.38-2.909,3.12-4.099
		c0.186-0.317,0.317-0.476,0.45-0.476c0.106,0,0.185,0.106,0.185,0.291c0,0.106-0.026,0.265-0.105,0.45
		c-0.371,0.925-2.195,5.262-4.416,5.262c-1.032,0-1.904-0.74-1.904-2.724c0-1.745,0.661-5.474,1.587-9.255l-0.846-0.079
		c-0.317-0.026-0.45-0.37-0.45-0.714c0-0.396,0.185-0.819,0.476-0.819C50.874,5.315,51.297,5.315,51.72,5.341z"/>
	<path d="M63.618,8.197c0,2.539-1.904,6.108-4.707,6.108c-0.317,0-0.661-0.053-1.005-0.159c0,1.164,0.106,3.173,1.746,3.173
		c2.512,0,3.86-2.856,4.548-3.94c0.159-0.264,0.291-0.37,0.423-0.37c0.106,0,0.185,0.106,0.185,0.265
		c0,0.105-0.026,0.238-0.079,0.37c-1.19,2.961-3.041,5.289-6.082,5.289c-2.274,0-3.2-2.062-3.2-4.575
		c0-3.94,2.274-9.043,5.051-9.043c0.582,0,1.19,0.185,1.507,0.449C63.116,5.896,63.618,6.901,63.618,8.197z M58.171,13.459
		c1.56,0,3.808-4.178,3.808-6.241c0-0.423-0.053-0.873-0.449-0.873c-1.507,0-3.253,3.914-3.57,7.087
		C58.039,13.459,58.091,13.459,58.171,13.459z"/>
	<path d="M65.572,18.113c-0.079,0.582-0.529,0.873-0.979,0.873c-0.502,0-1.005-0.37-1.005-1.163c0-1.058,0.846-7.008,2.089-11.133
		c0.132-0.45,0.555-0.661,1.005-0.661c0.608,0,1.295,0.423,1.295,1.164c0,0.449-0.317,1.11-0.449,1.586
		c0.952-2.036,2.115-3.517,3.411-3.517c0.979,0,1.349,0.582,1.349,1.719c0,1.481-1.084,3.57-1.084,4.496
		c0,0.37,0.212,0.582,0.608,0.582c1.507,0,2.01-3.543,2.724-5.95c0.106-0.396,0.396-0.555,0.74-0.555
		c0.608,0,1.402,0.582,1.402,1.164c0,0.079-0.026,0.132-0.635,2.406c1.031-2.512,2.354-4.442,3.755-4.442
		c1.005,0,1.322,0.529,1.322,1.349c0,1.64-1.401,4.363-1.401,5.817c0,0.37,0.211,0.582,0.608,0.582c1.19,0,2.512-3.597,2.909-3.597
		c0.106,0,0.186,0.106,0.186,0.291c0,1.349-2.01,4.337-3.808,4.337c-1.058,0-2.062-0.45-2.062-2.036
		c0-1.455,1.322-3.808,1.322-4.628c0-0.185-0.08-0.317-0.265-0.317c-0.82,0-2.776,3.623-3.676,7.695
		c-0.555,2.565-0.396,4.812-1.639,4.812c-0.502,0-1.005-0.37-1.005-1.163c0-0.873,0.502-3.993,0.873-6.003
		c-0.529,0.714-1.19,1.164-2.062,1.164c-1.058,0-2.062-0.529-2.062-2.116c0-1.454,0.978-2.67,0.978-3.49
		c0-0.185-0.079-0.317-0.264-0.317c-0.899,0-3.067,3.781-3.755,8.25L65.572,18.113z"/>
	<path d="M91.826,18.113c-0.08,0.582-0.555,0.873-0.979,0.873c-0.502,0-1.005-0.37-1.005-1.163c0-0.82,0.291-3.015,0.767-5.5
		c-0.635,0.661-1.375,1.137-2.195,1.137c-1.058,0-2.063-0.45-2.063-2.036c0-1.455,1.164-3.226,1.164-4.046
		c0-0.185-0.079-0.317-0.264-0.317c-0.899,0-3.094,3.781-3.755,8.25l-0.423,2.803c-0.079,0.582-0.529,0.873-0.979,0.873
		c-0.502,0-1.005-0.37-1.005-1.163c0-1.851,0.899-7.061,2.089-11.133c0.132-0.45,0.555-0.661,1.005-0.661
		c0.608,0,1.295,0.423,1.295,1.164c0,0.449-0.317,1.11-0.449,1.586c0.952-2.036,2.115-3.517,3.411-3.517
		c0.979,0,1.349,0.582,1.349,1.719c0,1.481-1.27,3.94-1.27,4.866c0,0.37,0.212,0.582,0.608,0.582c0.582,0,1.296-0.899,1.825-1.825
		c0.291-1.322,0.608-2.697,0.978-3.914c0.132-0.45,0.556-0.661,1.005-0.661c0.608,0,1.296,0.423,1.296,1.164
		c0,0.449-0.317,1.11-0.45,1.586c0.952-2.036,2.116-3.517,3.412-3.517c0.978,0,1.349,0.582,1.349,1.719
		c0,1.481-0.979,3.147-1.137,4.681c-0.053,0.582-0.45,0.846-0.926,0.846c-0.608,0-1.295-0.502-1.295-1.349
		c0-1.586,1.084-2.961,1.084-3.781c0-0.185-0.079-0.317-0.264-0.317c-0.899,0-3.094,3.781-3.755,8.25L91.826,18.113z"/>
</g>
</svg>
