<?xml version="1.0" encoding="UTF-8"?>
<svg id="Layer_2" data-name="Layer 2" xmlns="http://www.w3.org/2000/svg" width="498.62" height="93.97" viewBox="0 0 498.62 93.97">
  <defs>
    <style>
      .cls-1 {
        fill: #fff;
      }
    </style>
  </defs>
  <g id="Layer_1-2" data-name="Layer 1">
    <g>
      <g>
        <path class="cls-1" d="M78.21,23.57v20.29h-.01c-.15,5.83-4.93,10.53-10.79,10.53-2.89,0-5.6-1.12-7.64-3.17l-2.83-3.21-7.94,9.02,2.33,2.64c4.3,4.3,10.01,6.66,16.09,6.66,3.91,0,7.59-.99,10.81-2.73v1.44h11.95v-21.46c0-8.64-4.84-16.16-11.95-20.02Z"/>
        <g>
          <path class="cls-1" d="M30.39,35.95l2.83,3.21,7.94-9.02-2.33-2.64c-4.3-4.3-10.01-6.66-16.09-6.66-3.91,0-7.59.99-10.81,2.73v-1.44H0v21.46c0,8.64,4.84,16.16,11.95,20.02v-20.02c0-5.96,4.85-10.81,10.81-10.81,2.89,0,5.6,1.12,7.64,3.16Z"/>
          <path class="cls-1" d="M67.4,20.84c-6.51,0-12.72,2.8-17.06,7.69l-5.29,6.02-7.93,9.03h0s0,0,0,0l-6.28,7.16c-2.05,2.32-5,3.65-8.09,3.65-1.79,0-3.48-.45-4.97-1.22v12.61c1.6.36,3.27.55,4.97.55,6.51,0,12.72-2.8,17.06-7.69l5.29-6.02,7.93-9.03,6.28-7.16c2.05-2.32,5-3.65,8.1-3.65,1.79,0,3.48.45,4.97,1.22v-12.61c-1.6-.36-3.27-.55-4.97-.55Z"/>
        </g>
      </g>
      <g>
        <path class="cls-1" d="M122.17,62.55V24.05h12.29v2.08c1.54-1.09,3.28-1.91,5.21-2.46,1.94-.55,4.04-.69,6.33-.45v12.06c-3.92-.55-6.83-.21-8.71,1-1.89,1.22-2.83,3.19-2.83,5.92v20.33h-12.29Z"/>
        <path class="cls-1" d="M183.39,60.76c-3.42,1.44-6.83,2.33-10.2,2.68-3.38.35-6.57.16-9.57-.56-3-.72-5.67-1.95-8-3.69-2.33-1.74-4.16-3.95-5.47-6.63s-1.97-5.78-1.97-9.31c0-2.93.48-5.62,1.45-8.08.97-2.46,2.35-4.62,4.13-6.48,1.79-1.86,3.9-3.3,6.33-4.32,2.43-1.02,5.09-1.53,7.97-1.53,2.58,0,4.91.42,7,1.27,2.08.84,3.9,2.02,5.44,3.54,1.54,1.52,2.78,3.31,3.72,5.4.94,2.08,1.54,4.37,1.79,6.85.25,2.48.1,5.11-.45,7.89h-24.57c.94,1.89,2.52,3.23,4.73,4.02,2.21.79,4.84,1.04,7.89.74,3.05-.3,6.32-1.09,9.79-2.38v10.57ZM167.75,33.88c-1.44,0-2.77.4-3.98,1.19-1.22.79-2.15,2.01-2.79,3.65h13.48c-.6-1.69-1.48-2.92-2.64-3.69-1.17-.77-2.52-1.15-4.06-1.15Z"/>
        <path class="cls-1" d="M203.57,74.46h-12.29V24.05h12.29v2.16c1.24-.99,2.66-1.77,4.24-2.35,1.59-.57,3.28-.86,5.06-.86,2.48,0,4.84.48,7.07,1.45,2.23.97,4.21,2.35,5.92,4.13,1.71,1.79,3.05,3.92,4.02,6.4.97,2.48,1.45,5.24,1.45,8.27s-.48,5.71-1.45,8.19c-.97,2.48-2.31,4.63-4.02,6.44-1.71,1.81-3.69,3.21-5.92,4.21-2.23.99-4.62,1.49-7.15,1.49-1.79,0-3.46-.29-5.03-.86-1.56-.57-2.97-1.38-4.21-2.42v14.15ZM211.16,52.72c2.43,0,4.36-.86,5.77-2.57,1.42-1.71,2.12-4.01,2.12-6.89s-.71-5.16-2.12-6.85c-1.42-1.69-3.34-2.53-5.77-2.53s-4.29.86-5.73,2.57c-1.44,1.71-2.16,3.98-2.16,6.81s.72,5.11,2.16,6.85c1.44,1.74,3.35,2.61,5.73,2.61Z"/>
        <path class="cls-1" d="M269.51,60.76c-3.42,1.44-6.83,2.33-10.2,2.68-3.38.35-6.57.16-9.57-.56-3-.72-5.67-1.95-8-3.69-2.33-1.74-4.16-3.95-5.47-6.63s-1.97-5.78-1.97-9.31c0-2.93.48-5.62,1.45-8.08.97-2.46,2.35-4.62,4.13-6.48,1.79-1.86,3.9-3.3,6.33-4.32,2.43-1.02,5.09-1.53,7.97-1.53,2.58,0,4.91.42,7,1.27,2.08.84,3.9,2.02,5.44,3.54,1.54,1.52,2.78,3.31,3.72,5.4.94,2.08,1.54,4.37,1.79,6.85.25,2.48.1,5.11-.45,7.89h-24.57c.94,1.89,2.52,3.23,4.73,4.02,2.21.79,4.84,1.04,7.89.74,3.05-.3,6.32-1.09,9.79-2.38v10.57ZM253.87,33.88c-1.44,0-2.77.4-3.98,1.19-1.22.79-2.15,2.01-2.79,3.65h13.48c-.6-1.69-1.48-2.92-2.64-3.69-1.17-.77-2.52-1.15-4.06-1.15Z"/>
        <path class="cls-1" d="M303.12,62.55v-2.23c-1.24,1.04-2.64,1.85-4.21,2.42-1.56.57-3.24.86-5.03.86-2.53,0-4.91-.48-7.15-1.45-2.23-.97-4.21-2.36-5.92-4.17-1.71-1.81-3.05-3.96-4.02-6.44-.97-2.48-1.45-5.24-1.45-8.27s.48-5.86,1.45-8.34c.97-2.48,2.31-4.6,4.02-6.37,1.71-1.76,3.69-3.13,5.92-4.1,2.23-.97,4.59-1.45,7.07-1.45,1.79,0,3.47.29,5.06.86,1.59.57,3,1.35,4.24,2.35v-2.16h12.29v38.5h-12.29ZM295.52,52.72c2.38,0,4.29-.87,5.73-2.61,1.44-1.74,2.16-4.02,2.16-6.85s-.72-5.1-2.16-6.81c-1.44-1.71-3.35-2.57-5.73-2.57s-4.36.84-5.77,2.53c-1.42,1.69-2.12,3.97-2.12,6.85s.71,5.18,2.12,6.89c1.42,1.71,3.34,2.57,5.77,2.57Z"/>
        <path class="cls-1" d="M326.15,62.55v-27.48h-6.03v-11.02h6.03v-10.28h12.29v10.28h7v11.02h-7v27.48h-12.29Z"/>
        <path class="cls-1" d="M383,60.76c-3.42,1.44-6.83,2.33-10.2,2.68-3.38.35-6.57.16-9.57-.56-3-.72-5.67-1.95-8-3.69-2.33-1.74-4.16-3.95-5.47-6.63s-1.97-5.78-1.97-9.31c0-2.93.48-5.62,1.45-8.08.97-2.46,2.35-4.62,4.13-6.48,1.79-1.86,3.9-3.3,6.33-4.32,2.43-1.02,5.09-1.53,7.97-1.53,2.58,0,4.91.42,7,1.27,2.08.84,3.9,2.02,5.44,3.54,1.54,1.52,2.78,3.31,3.72,5.4.94,2.08,1.54,4.37,1.79,6.85.25,2.48.1,5.11-.45,7.89h-24.57c.94,1.89,2.52,3.23,4.73,4.02,2.21.79,4.84,1.04,7.89.74,3.05-.3,6.32-1.09,9.79-2.38v10.57ZM367.36,33.88c-1.44,0-2.77.4-3.98,1.19-1.22.79-2.15,2.01-2.79,3.65h13.48c-.6-1.69-1.48-2.92-2.64-3.69-1.17-.77-2.52-1.15-4.06-1.15Z"/>
        <path class="cls-1" d="M390.89,62.55V24.05h12.29v2.08c1.54-1.09,3.28-1.91,5.21-2.46,1.94-.55,4.04-.69,6.33-.45v12.06c-3.92-.55-6.83-.21-8.71,1-1.89,1.22-2.83,3.19-2.83,5.92v20.33h-12.29Z"/>
        <path class="cls-1" d="M418.36,62.55V24.05h12.29v2.08c1.54-1.09,3.28-1.91,5.21-2.46,1.94-.55,4.04-.69,6.33-.45v12.06c-3.92-.55-6.83-.21-8.71,1-1.89,1.22-2.83,3.19-2.83,5.92v20.33h-12.29Z"/>
        <path class="cls-1" d="M445.83,62.55V24.05h12.29v2.08c1.54-1.09,3.28-1.91,5.21-2.46,1.94-.55,4.04-.69,6.33-.45v12.06c-3.92-.55-6.83-.21-8.71,1-1.89,1.22-2.83,3.19-2.83,5.92v20.33h-12.29Z"/>
        <path class="cls-1" d="M473.3,62.55V24.05h12.29v2.08c1.54-1.09,3.28-1.91,5.21-2.46,1.94-.55,4.04-.69,6.33-.45v12.06c-3.92-.55-6.83-.21-8.71,1-1.89,1.22-2.83,3.19-2.83,5.92v20.33h-12.29Z"/>
      </g>
    </g>
  </g>
</svg>