<?xml version="1.0" encoding="UTF-8"?>
<svg id="Layer_2" data-name="Layer 2" xmlns="http://www.w3.org/2000/svg" width="185.9" height="45.11" viewBox="0 0 185.9 45.11">
  <defs>
    <style>
      .cls-1 {
        fill: #231f20;
      }
    </style>
  </defs>
  <g id="Layer_1-2" data-name="Layer 1">
    <g>
      <path class="cls-1" d="M1.97,30.03V11.55h5.9v1c.74-.52,1.57-.92,2.5-1.18.93-.26,1.94-.33,3.04-.21v5.79c-1.88-.26-3.28-.1-4.18.48-.91.58-1.36,1.53-1.36,2.84v9.76H1.97Z"/>
      <path class="cls-1" d="M31.67,29.17c-1.64.69-3.28,1.12-4.9,1.29-1.62.17-3.15.08-4.59-.27-1.44-.34-2.72-.93-3.84-1.77-1.12-.83-2-1.89-2.63-3.18-.63-1.29-.95-2.78-.95-4.47,0-1.41.23-2.7.7-3.88.46-1.18,1.13-2.22,1.98-3.11.86-.89,1.87-1.58,3.04-2.07,1.17-.49,2.44-.73,3.82-.73,1.24,0,2.36.2,3.36.61,1,.41,1.87.97,2.61,1.7.74.73,1.33,1.59,1.79,2.59.45,1,.74,2.1.86,3.29.12,1.19.05,2.45-.21,3.79h-11.8c.45.91,1.21,1.55,2.27,1.93,1.06.38,2.32.5,3.79.36s3.03-.52,4.7-1.14v5.08ZM24.17,16.26c-.69,0-1.33.19-1.91.57s-1.03.96-1.34,1.75h6.47c-.29-.81-.71-1.4-1.27-1.77-.56-.37-1.21-.55-1.95-.55Z"/>
      <path class="cls-1" d="M41.67,35.75h-5.9V11.55h5.9v1.04c.6-.48,1.27-.85,2.04-1.13.76-.27,1.57-.41,2.43-.41,1.19,0,2.32.23,3.4.7,1.07.46,2.02,1.13,2.84,1.98s1.47,1.88,1.93,3.07c.46,1.19.7,2.51.7,3.97s-.23,2.74-.7,3.93c-.46,1.19-1.11,2.22-1.93,3.09-.82.87-1.77,1.54-2.84,2.02-1.07.48-2.22.71-3.43.71-.86,0-1.66-.14-2.41-.41-.75-.27-1.42-.66-2.02-1.16v6.79ZM45.32,25.31c1.17,0,2.09-.41,2.77-1.23.68-.82,1.02-1.92,1.02-3.31s-.34-2.48-1.02-3.29c-.68-.81-1.6-1.22-2.77-1.22s-2.06.41-2.75,1.23-1.04,1.91-1.04,3.27.34,2.46,1.04,3.29c.69.83,1.61,1.25,2.75,1.25Z"/>
      <path class="cls-1" d="M73.64,29.17c-1.64.69-3.28,1.12-4.9,1.29-1.62.17-3.15.08-4.59-.27-1.44-.34-2.72-.93-3.84-1.77-1.12-.83-2-1.89-2.63-3.18-.63-1.29-.95-2.78-.95-4.47,0-1.41.23-2.7.7-3.88.46-1.18,1.13-2.22,1.98-3.11.86-.89,1.87-1.58,3.04-2.07,1.17-.49,2.44-.73,3.82-.73,1.24,0,2.36.2,3.36.61,1,.41,1.87.97,2.61,1.7.74.73,1.33,1.59,1.79,2.59.45,1,.74,2.1.86,3.29.12,1.19.05,2.45-.21,3.79h-11.8c.45.91,1.21,1.55,2.27,1.93,1.06.38,2.32.5,3.79.36s3.03-.52,4.7-1.14v5.08ZM66.13,16.26c-.69,0-1.33.19-1.91.57s-1.03.96-1.34,1.75h6.47c-.29-.81-.71-1.4-1.27-1.77-.56-.37-1.21-.55-1.95-.55Z"/>
      <path class="cls-1" d="M90.09,30.03v-1.07c-.6.5-1.27.89-2.02,1.16-.75.27-1.55.41-2.41.41-1.21,0-2.36-.23-3.43-.7-1.07-.46-2.02-1.13-2.84-2-.82-.87-1.46-1.9-1.93-3.09-.46-1.19-.7-2.51-.7-3.97s.23-2.81.7-4c.46-1.19,1.11-2.21,1.93-3.06.82-.85,1.77-1.5,2.84-1.97,1.07-.46,2.2-.7,3.4-.7.86,0,1.67.14,2.43.41.76.27,1.44.65,2.04,1.13v-1.04h5.9v18.48h-5.9ZM86.44,25.31c1.14,0,2.06-.42,2.75-1.25.69-.83,1.04-1.93,1.04-3.29s-.35-2.45-1.04-3.27-1.61-1.23-2.75-1.23-2.09.41-2.77,1.22c-.68.81-1.02,1.91-1.02,3.29s.34,2.48,1.02,3.31c.68.82,1.6,1.23,2.77,1.23Z"/>
      <path class="cls-1" d="M101.47,30.03v-13.19h-2.9v-5.29h2.9v-4.93h5.9v4.93h3.36v5.29h-3.36v13.19h-5.9Z"/>
      <path class="cls-1" d="M129.08,29.17c-1.64.69-3.28,1.12-4.9,1.29-1.62.17-3.15.08-4.59-.27-1.44-.34-2.72-.93-3.84-1.77-1.12-.83-2-1.89-2.63-3.18-.63-1.29-.95-2.78-.95-4.47,0-1.41.23-2.7.7-3.88.46-1.18,1.13-2.22,1.98-3.11.86-.89,1.87-1.58,3.04-2.07,1.17-.49,2.44-.73,3.82-.73,1.24,0,2.36.2,3.36.61,1,.41,1.87.97,2.61,1.7.74.73,1.33,1.59,1.79,2.59.45,1,.74,2.1.86,3.29.12,1.19.05,2.45-.21,3.79h-11.8c.45.91,1.21,1.55,2.27,1.93,1.06.38,2.32.5,3.79.36s3.03-.52,4.7-1.14v5.08ZM121.57,16.26c-.69,0-1.33.19-1.91.57s-1.03.96-1.34,1.75h6.47c-.29-.81-.71-1.4-1.27-1.77-.56-.37-1.21-.55-1.95-.55Z"/>
      <path class="cls-1" d="M133.18,30.03V11.55h5.9v1c.74-.52,1.57-.92,2.5-1.18.93-.26,1.94-.33,3.04-.21v5.79c-1.88-.26-3.28-.1-4.18.48-.91.58-1.36,1.53-1.36,2.84v9.76h-5.9Z"/>
      <path class="cls-1" d="M146.7,30.03V11.55h5.9v1c.74-.52,1.57-.92,2.5-1.18.93-.26,1.94-.33,3.04-.21v5.79c-1.88-.26-3.28-.1-4.18.48-.91.58-1.36,1.53-1.36,2.84v9.76h-5.9Z"/>
      <path class="cls-1" d="M160.23,30.03V11.55h5.9v1c.74-.52,1.57-.92,2.5-1.18.93-.26,1.94-.33,3.04-.21v5.79c-1.88-.26-3.28-.1-4.18.48-.91.58-1.36,1.53-1.36,2.84v9.76h-5.9Z"/>
      <path class="cls-1" d="M173.75,30.03V11.55h5.9v1c.74-.52,1.57-.92,2.5-1.18.93-.26,1.94-.33,3.04-.21v5.79c-1.88-.26-3.28-.1-4.18.48-.91.58-1.36,1.53-1.36,2.84v9.76h-5.9Z"/>
    </g>
  </g>
</svg>