<?xml version="1.0" encoding="UTF-8"?>
<svg id="Layer_2" data-name="Layer 2" xmlns="http://www.w3.org/2000/svg" width="481.1" height="93.97" viewBox="0 0 481.1 93.97">
  <defs>
    <style>
      .cls-1 {
        fill: #fff;
      }
    </style>
  </defs>
  <g id="Layer_1-2" data-name="Layer 1">
    <g>
      <g>
        <path class="cls-1" d="M65.16,26.91v16.91h-.01c-.12,4.86-4.1,8.77-8.99,8.77-2.4,0-4.67-.94-6.37-2.64l-2.36-2.68-6.62,7.52,1.94,2.2c3.58,3.58,8.34,5.55,13.4,5.55,3.26,0,6.32-.83,9-2.28v1.2h9.95v-17.88c0-7.2-4.03-13.47-9.95-16.68Z"/>
        <g>
          <path class="cls-1" d="M25.32,37.22l2.36,2.68,6.62-7.52-1.94-2.2c-3.58-3.58-8.34-5.55-13.4-5.55-3.26,0-6.32.83-9,2.28v-1.2H0v17.88c0,7.2,4.03,13.47,9.95,16.68v-16.68c0-4.96,4.04-9,9-9,2.4,0,4.67.94,6.37,2.64Z"/>
          <path class="cls-1" d="M56.16,24.63c-5.42,0-10.6,2.33-14.21,6.41l-4.4,5.02-6.61,7.53h0s0,0,0,0l-5.23,5.96c-1.71,1.93-4.17,3.04-6.74,3.04-1.5,0-2.9-.37-4.15-1.02v10.51c1.34.3,2.72.46,4.15.46,5.43,0,10.6-2.33,14.21-6.41l4.4-5.02,6.61-7.53,5.23-5.96c1.71-1.93,4.17-3.04,6.75-3.04,1.5,0,2.9.37,4.15,1.02v-10.51c-1.34-.3-2.72-.46-4.15-.46Z"/>
        </g>
      </g>
      <g>
        <path class="cls-1" d="M104.65,62.55V24.05h12.29v2.08c1.54-1.09,3.28-1.91,5.21-2.46,1.94-.55,4.04-.69,6.33-.45v12.06c-3.92-.55-6.83-.21-8.71,1-1.89,1.22-2.83,3.19-2.83,5.92v20.33h-12.29Z"/>
        <path class="cls-1" d="M165.87,60.76c-3.42,1.44-6.83,2.33-10.2,2.68-3.38.35-6.57.16-9.57-.56-3-.72-5.67-1.95-8-3.69-2.33-1.74-4.16-3.95-5.47-6.63s-1.97-5.78-1.97-9.31c0-2.93.48-5.62,1.45-8.08.97-2.46,2.35-4.62,4.13-6.48,1.79-1.86,3.9-3.3,6.33-4.32,2.43-1.02,5.09-1.53,7.97-1.53,2.58,0,4.91.42,7,1.27,2.08.84,3.9,2.02,5.44,3.54,1.54,1.52,2.78,3.31,3.72,5.4.94,2.08,1.54,4.37,1.79,6.85.25,2.48.1,5.11-.45,7.89h-24.57c.94,1.89,2.52,3.23,4.73,4.02,2.21.79,4.84,1.04,7.89.74,3.05-.3,6.32-1.09,9.79-2.38v10.57ZM150.24,33.88c-1.44,0-2.77.4-3.98,1.19-1.22.79-2.15,2.01-2.79,3.65h13.48c-.6-1.69-1.48-2.92-2.64-3.69-1.17-.77-2.52-1.15-4.06-1.15Z"/>
        <path class="cls-1" d="M186.05,74.46h-12.29V24.05h12.29v2.16c1.24-.99,2.66-1.77,4.24-2.35,1.59-.57,3.28-.86,5.06-.86,2.48,0,4.84.48,7.07,1.45,2.23.97,4.21,2.35,5.92,4.13,1.71,1.79,3.05,3.92,4.02,6.4.97,2.48,1.45,5.24,1.45,8.27s-.48,5.71-1.45,8.19c-.97,2.48-2.31,4.63-4.02,6.44-1.71,1.81-3.69,3.21-5.92,4.21-2.23.99-4.62,1.49-7.15,1.49-1.79,0-3.46-.29-5.03-.86-1.56-.57-2.97-1.38-4.21-2.42v14.15ZM193.65,52.72c2.43,0,4.36-.86,5.77-2.57,1.42-1.71,2.12-4.01,2.12-6.89s-.71-5.16-2.12-6.85c-1.42-1.69-3.34-2.53-5.77-2.53s-4.29.86-5.73,2.57c-1.44,1.71-2.16,3.98-2.16,6.81s.72,5.11,2.16,6.85c1.44,1.74,3.35,2.61,5.73,2.61Z"/>
        <path class="cls-1" d="M251.99,60.76c-3.42,1.44-6.83,2.33-10.2,2.68-3.38.35-6.57.16-9.57-.56-3-.72-5.67-1.95-8-3.69-2.33-1.74-4.16-3.95-5.47-6.63s-1.97-5.78-1.97-9.31c0-2.93.48-5.62,1.45-8.08.97-2.46,2.35-4.62,4.13-6.48,1.79-1.86,3.9-3.3,6.33-4.32,2.43-1.02,5.09-1.53,7.97-1.53,2.58,0,4.91.42,7,1.27,2.08.84,3.9,2.02,5.44,3.54,1.54,1.52,2.78,3.31,3.72,5.4.94,2.08,1.54,4.37,1.79,6.85.25,2.48.1,5.11-.45,7.89h-24.57c.94,1.89,2.52,3.23,4.73,4.02,2.21.79,4.84,1.04,7.89.74,3.05-.3,6.32-1.09,9.79-2.38v10.57ZM236.35,33.88c-1.44,0-2.77.4-3.98,1.19-1.22.79-2.15,2.01-2.79,3.65h13.48c-.6-1.69-1.48-2.92-2.64-3.69-1.17-.77-2.52-1.15-4.06-1.15Z"/>
        <path class="cls-1" d="M285.6,62.55v-2.23c-1.24,1.04-2.64,1.85-4.21,2.42-1.56.57-3.24.86-5.03.86-2.53,0-4.91-.48-7.15-1.45-2.23-.97-4.21-2.36-5.92-4.17-1.71-1.81-3.05-3.96-4.02-6.44-.97-2.48-1.45-5.24-1.45-8.27s.48-5.86,1.45-8.34c.97-2.48,2.31-4.6,4.02-6.37,1.71-1.76,3.69-3.13,5.92-4.1,2.23-.97,4.59-1.45,7.07-1.45,1.79,0,3.47.29,5.06.86,1.59.57,3,1.35,4.24,2.35v-2.16h12.29v38.5h-12.29ZM278.01,52.72c2.38,0,4.29-.87,5.73-2.61,1.44-1.74,2.16-4.02,2.16-6.85s-.72-5.1-2.16-6.81c-1.44-1.71-3.35-2.57-5.73-2.57s-4.36.84-5.77,2.53c-1.42,1.69-2.12,3.97-2.12,6.85s.71,5.18,2.12,6.89c1.42,1.71,3.34,2.57,5.77,2.57Z"/>
        <path class="cls-1" d="M308.63,62.55v-27.48h-6.03v-11.02h6.03v-10.28h12.29v10.28h7v11.02h-7v27.48h-12.29Z"/>
        <path class="cls-1" d="M365.48,60.76c-3.42,1.44-6.83,2.33-10.2,2.68-3.38.35-6.57.16-9.57-.56-3-.72-5.67-1.95-8-3.69-2.33-1.74-4.16-3.95-5.47-6.63s-1.97-5.78-1.97-9.31c0-2.93.48-5.62,1.45-8.08.97-2.46,2.35-4.62,4.13-6.48,1.79-1.86,3.9-3.3,6.33-4.32,2.43-1.02,5.09-1.53,7.97-1.53,2.58,0,4.91.42,7,1.27,2.08.84,3.9,2.02,5.44,3.54,1.54,1.52,2.78,3.31,3.72,5.4.94,2.08,1.54,4.37,1.79,6.85.25,2.48.1,5.11-.45,7.89h-24.57c.94,1.89,2.52,3.23,4.73,4.02,2.21.79,4.84,1.04,7.89.74,3.05-.3,6.32-1.09,9.79-2.38v10.57ZM349.85,33.88c-1.44,0-2.77.4-3.98,1.19-1.22.79-2.15,2.01-2.79,3.65h13.48c-.6-1.69-1.48-2.92-2.64-3.69-1.17-.77-2.52-1.15-4.06-1.15Z"/>
        <path class="cls-1" d="M373.38,62.55V24.05h12.29v2.08c1.54-1.09,3.28-1.91,5.21-2.46,1.94-.55,4.04-.69,6.33-.45v12.06c-3.92-.55-6.83-.21-8.71,1-1.89,1.22-2.83,3.19-2.83,5.92v20.33h-12.29Z"/>
        <path class="cls-1" d="M400.85,62.55V24.05h12.29v2.08c1.54-1.09,3.28-1.91,5.21-2.46,1.94-.55,4.04-.69,6.33-.45v12.06c-3.92-.55-6.83-.21-8.71,1-1.89,1.22-2.83,3.19-2.83,5.92v20.33h-12.29Z"/>
        <path class="cls-1" d="M428.31,62.55V24.05h12.29v2.08c1.54-1.09,3.28-1.91,5.21-2.46,1.94-.55,4.04-.69,6.33-.45v12.06c-3.92-.55-6.83-.21-8.71,1-1.89,1.22-2.83,3.19-2.83,5.92v20.33h-12.29Z"/>
        <path class="cls-1" d="M455.78,62.55V24.05h12.29v2.08c1.54-1.09,3.28-1.91,5.21-2.46,1.94-.55,4.04-.69,6.33-.45v12.06c-3.92-.55-6.83-.21-8.71,1-1.89,1.22-2.83,3.19-2.83,5.92v20.33h-12.29Z"/>
      </g>
    </g>
  </g>
</svg>