<?xml version="1.0" encoding="UTF-8"?>
<svg id="Layer_2" data-name="Layer 2" xmlns="http://www.w3.org/2000/svg" width="158.48" height="79.99" viewBox="0 0 158.48 79.99">
  <defs>
    <style>
      .cls-1 {
        fill: #231f20;
      }
    </style>
  </defs>
  <g id="Layer_1-2" data-name="Layer 1">
    <g>
      <path class="cls-1" d="M137.48,4.81v35.67h-.02c-.26,10.25-8.66,18.51-18.97,18.51-5.07,0-9.84-1.98-13.43-5.56l-4.98-5.65-13.96,15.86,4.09,4.64c7.55,7.55,17.6,11.71,28.28,11.71,6.87,0,13.34-1.74,19-4.81v2.54h21v-37.72c0-15.18-8.5-28.42-21-35.19Z"/>
      <g>
        <path class="cls-1" d="M53.43,26.56l4.98,5.65,13.96-15.86-4.09-4.64C60.72,4.16,50.68,0,40,0c-6.87,0-13.34,1.74-19,4.81v-2.54H0v37.72c0,15.18,8.5,28.42,21,35.19v-35.19c0-10.47,8.52-19,19-19,5.07,0,9.84,1.98,13.43,5.56Z"/>
        <path class="cls-1" d="M118.48,0c-11.44,0-22.36,4.92-29.98,13.53l-9.29,10.59-13.94,15.88h0s0,0,0,0l-11.04,12.58c-3.61,4.07-8.79,6.41-14.23,6.41-3.15,0-6.12-.78-8.74-2.15v22.18c2.82.63,5.74.97,8.74.97,11.45,0,22.36-4.92,29.98-13.53l9.29-10.59,13.94-15.88,11.04-12.58c3.61-4.08,8.8-6.41,14.23-6.41,3.15,0,6.12.78,8.74,2.15V.97c-2.82-.63-5.74-.97-8.74-.97Z"/>
      </g>
    </g>
  </g>
</svg>